<svg width="3000" height="2025" viewBox="0 0 3000 2025" fill="none" xmlns="http://www.w3.org/2000/svg">
<mask id="mask0_99_831" style="mask-type:luminance" maskUnits="userSpaceOnUse" x="0" y="0" width="3000" height="2025">
<path d="M3000 0H0V2025H3000V0Z" fill="white"/>
</mask>
<g mask="url(#mask0_99_831)">
<mask id="mask1_99_831" style="mask-type:luminance" maskUnits="userSpaceOnUse" x="0" y="0" width="3000" height="2025">
<path d="M3000 0H0V2025H3000V0Z" fill="white"/>
</mask>
<g mask="url(#mask1_99_831)">
<path opacity="0.08" d="M1520.03 1423.91C1795.19 1423.91 2018.25 1200.84 2018.25 925.681C2018.25 650.52 1795.19 427.457 1520.03 427.457C1244.86 427.457 1021.8 650.52 1021.8 925.681C1021.8 1200.84 1244.86 1423.91 1520.03 1423.91Z" fill="#7B2CBF"/>
</g>
<mask id="mask2_99_831" style="mask-type:luminance" maskUnits="userSpaceOnUse" x="0" y="0" width="3000" height="2025">
<path d="M3000 0H0V2025H3000V0Z" fill="white"/>
</mask>
<g mask="url(#mask2_99_831)">
<path d="M1500 1406.62C1775.16 1406.62 1998.22 1183.55 1998.22 908.392C1998.22 633.23 1775.16 410.168 1500 410.168C1224.84 410.168 1001.78 633.23 1001.78 908.392C1001.78 1183.55 1224.84 1406.62 1500 1406.62Z" fill="#E0AAFF"/>
</g>
<mask id="mask3_99_831" style="mask-type:luminance" maskUnits="userSpaceOnUse" x="0" y="0" width="3000" height="2025">
<path d="M3000 0H0V2025H3000V0Z" fill="white"/>
</mask>
<g mask="url(#mask3_99_831)">
<path opacity="0.31" d="M1124.57 1155.89L1222.88 1114.09L1172.28 995.088L1073.98 1036.88L1071.5 1031.05C1067.29 1021.16 1055.86 1016.55 1045.97 1020.75L1027.07 1028.79L1025.68 1025.5C1024.04 1021.65 1019.59 1019.85 1015.74 1021.49L993.075 1031.13C989.222 1032.76 987.427 1037.21 989.065 1041.07L990.462 1044.35L979.755 1048.9L978.358 1045.62C976.72 1041.77 972.269 1039.97 968.416 1041.61L945.756 1051.24C941.903 1052.88 940.108 1057.33 941.746 1061.18L943.143 1064.47L809.962 1121.09C800.071 1125.3 795.461 1136.73 799.667 1146.62L812.139 1175.95L767.928 1194.75L775.695 1213.02C665.227 1260.57 540.976 1312.82 420.463 1316.26C368.874 1317.74 268.759 1298.64 177.954 1154.16C153.148 1114.7 133.025 1072.47 116.612 1036.37C113.763 1030.11 111.002 1023.41 108.078 1016.31C94.0181 982.185 78.0801 943.504 40.8671 924.735C-12.2919 897.925 -59.7579 928.062 -97.8979 952.279C-102.536 955.224 -107.111 958.129 -111.622 960.887C-123.787 968.323 -136.316 976.391 -148.43 984.195C-212.225 1025.28 -278.191 1067.77 -349.775 1060.69C-414.348 1054.31 -471.986 1011.61 -503.954 946.46C-567.914 816.12 -557.298 684.287 -471.495 543.425C-395.868 419.27 -275.993 309.318 -170.229 212.31C-154.23 197.634 -139.118 183.774 -124.308 170.004C-94.2119 142.021 -60.2858 108.676 -38.6058 67.0079C-13.9248 19.5719 -9.96683 -31.3561 -27.7468 -72.7201C-42.9488 -108.115 -74.8529 -138.296 -122.555 -162.449C-199.69 -201.504 -281.86 -217.967 -366.786 -211.378C-440.425 -205.665 -518.308 -182.355 -598.267 -142.095C-741.225 -70.1171 -868.934 42.3239 -985.647 153.11L-1068.69 231.941L-1042.85 259.166L-959.805 180.335C-845.177 71.5279 -719.997 -38.7801 -581.388 -108.568C-505.809 -146.622 -432.629 -168.621 -363.881 -173.955C-285.912 -180.004 -210.423 -164.865 -139.512 -128.96C-99.8718 -108.89 -73.8669 -84.9801 -62.2329 -57.8981C-49.1159 -27.3831 -52.7319 12.8329 -71.9049 49.6809C-90.8229 86.0429 -122.067 116.666 -149.867 142.513C-164.583 156.197 -179.651 170.015 -195.602 184.646C-303.202 283.34 -425.158 395.199 -503.552 523.898C-547.075 595.349 -572.083 663.332 -580.006 731.733C-589.018 809.549 -574.768 887.357 -537.65 962.993C-530.449 977.668 -522.122 991.372 -512.807 1004.01C-473.324 1057.59 -416.254 1091.83 -353.468 1098.04C-268.865 1106.41 -194.083 1058.25 -128.105 1015.75C-115.623 1007.71 -103.833 1000.12 -92.0439 992.912C-87.3529 990.045 -82.5979 987.027 -77.7779 983.967C-36.9359 958.035 -7.78791 942.235 23.9651 958.25C48.7051 970.721 61.2471 1001.17 73.3751 1030.61C76.2951 1037.7 79.3151 1045.03 82.4431 1051.91C99.3731 1089.15 120.187 1132.79 146.178 1174.14C189.418 1242.94 282.693 1357.75 421.537 1353.78C549.072 1350.14 676.86 1296.42 790.383 1247.56L798.221 1266L842.432 1247.2L855.226 1277.29C859.431 1287.18 870.859 1291.79 880.75 1287.59L1013.93 1230.96L1015.33 1234.25C1016.97 1238.1 1021.42 1239.9 1025.27 1238.26L1047.93 1228.63C1051.78 1226.99 1053.58 1222.54 1051.94 1218.68L1050.54 1215.4L1061.25 1210.85L1062.65 1214.13C1064.29 1217.99 1068.74 1219.78 1072.59 1218.14L1095.25 1208.51C1099.1 1206.87 1100.9 1202.42 1099.26 1198.57L1097.86 1195.28L1116.76 1187.25C1126.65 1183.04 1131.26 1171.61 1127.05 1161.72L1124.57 1155.89Z" fill="#7B2CBF"/>
<path d="M1068.16 1177.44C1069.8 1181.29 1074.25 1183.09 1078.11 1181.45L1100.77 1171.82C1104.62 1170.18 1106.41 1165.73 1104.78 1161.87L1103.38 1158.59L1122.27 1150.56C1132.17 1146.35 1136.78 1134.92 1132.57 1125.03L1077.01 994.357C1072.81 984.465 1061.38 979.856 1051.49 984.061L1032.59 992.095L1031.19 988.81C1029.56 984.957 1025.11 983.162 1021.25 984.8L998.593 994.434C994.74 996.072 992.945 1000.52 994.583 1004.38L995.98 1007.66L985.273 1012.21L983.876 1008.93C982.238 1005.08 977.787 1003.28 973.934 1004.92L951.274 1014.55C947.421 1016.19 945.626 1020.64 947.264 1024.49L948.661 1027.78L815.48 1084.4C805.589 1088.61 800.979 1100.04 805.185 1109.93L860.743 1240.6C864.948 1250.49 876.376 1255.1 886.267 1250.9L1019.45 1194.28L1020.84 1197.56C1022.48 1201.41 1026.93 1203.21 1030.79 1201.57L1053.45 1191.94C1057.3 1190.3 1059.09 1185.85 1057.46 1182L1056.06 1178.71L1066.77 1174.16L1068.16 1177.44Z" fill="#9D4EDD"/>
<mask id="mask4_99_831" style="mask-type:luminance" maskUnits="userSpaceOnUse" x="803" y="982" width="332" height="271">
<path d="M1068.16 1177.44C1069.8 1181.29 1074.25 1183.09 1078.11 1181.45L1100.77 1171.82C1104.62 1170.18 1106.41 1165.73 1104.78 1161.87L1103.38 1158.59L1122.27 1150.56C1132.17 1146.35 1136.78 1134.92 1132.57 1125.03L1077.01 994.357C1072.81 984.465 1061.38 979.856 1051.49 984.061L1032.59 992.095L1031.19 988.81C1029.56 984.957 1025.11 983.162 1021.25 984.8L998.593 994.434C994.74 996.072 992.945 1000.52 994.583 1004.38L995.98 1007.66L985.273 1012.21L983.876 1008.93C982.238 1005.08 977.787 1003.28 973.934 1004.92L951.274 1014.55C947.421 1016.19 945.626 1020.64 947.264 1024.49L948.661 1027.78L815.48 1084.4C805.589 1088.61 800.979 1100.04 805.185 1109.93L860.743 1240.6C864.948 1250.49 876.376 1255.1 886.267 1250.9L1019.45 1194.28L1020.84 1197.56C1022.48 1201.41 1026.93 1203.21 1030.79 1201.57L1053.45 1191.94C1057.3 1190.3 1059.09 1185.85 1057.46 1182L1056.06 1178.71L1066.77 1174.16L1068.16 1177.44Z" fill="white"/>
</mask>
<g mask="url(#mask4_99_831)">
<path opacity="0.14" d="M831.007 1174.57L1123.62 1051.21L1068.11 947.376L773.063 1076.91L799.667 1146.62L831.007 1174.57Z" fill="#C77DFF"/>
</g>
<path d="M1228.42 1077.46L1177.82 958.455L1079.51 1000.26L1130.11 1119.26L1228.42 1077.46Z" fill="#C77DFF"/>
<path d="M1180.47 985.642L1172.91 967.868L1148.5 978.245L1156.06 996.019L1180.47 985.642Z" fill="white"/>
<path d="M1193.08 1015.32L1185.53 997.543L1161.12 1007.92L1168.68 1025.69L1193.08 1015.32Z" fill="white"/>
<path d="M1205.71 1044.99L1198.15 1027.22L1173.74 1037.6L1181.3 1055.37L1205.71 1044.99Z" fill="white"/>
<path d="M1218.29 1074.66L1210.74 1056.89L1186.33 1067.26L1193.89 1085.04L1218.29 1074.66Z" fill="white"/>
<path d="M1066.78 1174.22L995.991 1007.72L985.283 1012.27L1056.08 1178.77L1066.78 1174.22Z" fill="#C77DFF"/>
<path d="M846.708 1211.54L816.414 1140.3L768.83 1160.53L799.124 1231.78L846.708 1211.54Z" fill="#C77DFF"/>
<path d="M-511.906 969.727C-521.22 957.09 -529.548 943.386 -536.749 928.711C-573.867 853.074 -588.117 775.266 -579.105 697.451C-571.183 629.05 -546.175 561.067 -502.651 489.616C-424.257 360.917 -302.301 249.057 -194.701 150.364C-178.749 135.733 -163.682 121.914 -148.966 108.231C-121.167 82.384 -89.922 51.761 -71.004 15.399C-51.831 -21.449 -48.215 -61.665 -61.332 -92.18C-72.966 -119.262 -98.971 -143.172 -138.611 -163.242C-209.522 -199.147 -285.011 -214.286 -362.98 -208.237C-431.729 -202.903 -504.908 -180.904 -580.487 -142.85C-719.096 -73.062 -844.276 37.2459 -958.903 146.053L-1041.95 224.884L-1067.79 197.659L-984.745 118.828C-868.032 8.04197 -740.323 -104.4 -597.365 -176.377C-517.406 -216.637 -439.523 -239.947 -365.884 -245.66C-280.959 -252.25 -198.789 -235.786 -121.653 -196.731C-73.95 -172.578 -42.047 -142.396 -26.845 -107.002C-9.06597 -65.637 -13.024 -14.71 -37.703 32.724C-59.384 74.392 -93.309 107.737 -123.405 135.72C-138.216 149.49 -153.327 163.35 -169.326 178.026C-275.09 275.035 -394.965 384.986 -470.593 509.141C-556.396 650.002 -567.012 781.835 -503.052 912.175C-471.084 977.323 -413.446 1020.02 -348.873 1026.41C-277.29 1033.49 -211.323 990.999 -147.528 949.91C-135.413 942.106 -122.885 934.039 -110.719 926.602C-106.208 923.844 -101.633 920.94 -96.995 917.994C-58.855 893.777 -11.389 863.64 41.77 890.45C78.983 909.219 94.922 947.9 108.981 982.028C111.905 989.122 114.666 995.824 117.515 1002.09C133.928 1038.19 154.051 1080.42 178.857 1119.88C269.662 1264.36 369.777 1283.45 421.366 1281.98C545.112 1278.45 672.802 1223.44 785.461 1174.92L801.775 1167.9L816.596 1202.38L800.31 1209.39C684.558 1259.25 553.363 1315.76 422.438 1319.5C283.593 1323.46 190.319 1208.65 147.079 1139.85C121.088 1098.51 100.275 1054.86 83.344 1017.62C80.216 1010.74 77.196 1003.42 74.276 996.327C62.148 966.885 49.606 936.437 24.866 923.967C-6.88703 907.952 -36.034 923.752 -76.877 949.684C-81.696 952.744 -86.452 955.762 -91.142 958.629C-102.931 965.835 -114.721 973.429 -127.203 981.468C-193.181 1023.96 -267.962 1072.13 -352.565 1063.76C-415.354 1057.55 -472.424 1023.3 -511.906 969.727Z" fill="#C77DFF"/>
</g>
<mask id="mask5_99_831" style="mask-type:luminance" maskUnits="userSpaceOnUse" x="0" y="0" width="3000" height="2025">
<path d="M3000 0H0V2025H3000V0Z" fill="white"/>
</mask>
<g mask="url(#mask5_99_831)">
<path opacity="0.31" d="M3873.88 1419.99C3813.64 1420.33 3735.08 1379.85 3695.32 1288.66C3646.27 1176.15 3671.78 1055.03 3696.43 937.898C3698.31 928.955 3700.18 920.045 3702.02 911.172L3703.43 904.371C3731.47 768.835 3760.47 628.653 3760.94 487.543C3761.22 401.449 3744.06 313.574 3712.63 240.105C3675.03 152.244 3617.93 87.4574 3547.48 52.7474C3481.41 20.1934 3407.21 17.0264 3349.01 44.2754C3297.16 68.5504 3262.03 113.354 3247.4 173.845C3223.23 273.814 3242.96 378.262 3262.04 479.281C3264.49 492.247 3266.92 505.11 3269.23 517.838C3270.48 524.735 3271.76 531.692 3273.04 538.705C3299.74 684.306 3330 849.334 3232.86 970.83C3203.13 1008.01 3169.84 1027.37 3131.09 1030.04C3029.78 1036.99 2914.11 927.232 2821.17 839.04C2784.94 804.663 2753.66 774.975 2727.09 755.7C2559.41 634.057 2409.36 594.666 2269.07 635.608L2257.61 610.785L2205.11 635.023L2194.46 611.962C2190.41 603.191 2180.02 599.362 2171.25 603.411L2036.99 665.384L2034.38 659.722C2032.28 655.182 2026.9 653.2 2022.36 655.296L1889.87 716.453C1885.33 718.549 1883.35 723.929 1885.45 728.469L1888.06 734.13L1829.87 760.991C1821.1 765.04 1817.27 775.433 1821.32 784.204L1838.78 822.041L1705.73 883.844C1695.03 888.781 1690.36 901.454 1695.3 912.149C1700.24 922.845 1712.91 927.513 1723.61 922.576L1856.73 860.925L1874.42 899.243C1878.47 908.014 1888.86 911.843 1897.63 907.794L1955.82 880.933L1958.44 886.594C1960.53 891.135 1965.91 893.116 1970.45 891.02L2102.94 829.863C2107.48 827.767 2109.46 822.387 2107.37 817.847L2104.75 812.186L2239.01 750.213C2247.78 746.164 2251.61 735.771 2247.56 727L2239.61 709.775L2236.92 703.939L2289.43 679.701L2276.61 651.946C2410.6 613.912 2554.79 652.694 2716.64 770.106C2742.26 788.692 2773.15 818.007 2808.92 851.949C2904.39 942.538 3023.2 1055.28 3132.31 1047.79C3175.7 1044.81 3214.2 1022.66 3246.76 981.943C3348.97 854.114 3317.94 684.837 3290.55 535.494C3289.27 528.495 3288 521.547 3286.75 514.663C3284.43 501.891 3281.99 488.987 3279.53 475.977C3260.8 376.808 3241.41 274.276 3264.7 178.029C3278.01 122.973 3309.78 82.2954 3356.56 60.3924C3409.92 35.4124 3478.35 38.5234 3539.62 68.7114C3606.2 101.517 3660.37 163.206 3696.27 247.107C3726.77 318.393 3743.42 403.761 3743.14 487.484C3742.68 626.801 3713.87 766.088 3686 900.764L3684.59 907.567C3682.76 916.418 3680.89 925.307 3679.01 934.229C3653.78 1054.11 3627.69 1178.04 3679.01 1295.77C3696.1 1334.97 3723.7 1370.52 3756.74 1395.87C3792.76 1423.52 3833.3 1438.02 3873.98 1437.79L3873.88 1419.99Z" fill="#7B2CBF"/>
<path d="M2196.74 576.791L2249.84 691.829C2253.89 700.6 2250.06 710.993 2241.29 715.042L1899.91 872.623C1891.14 876.672 1880.74 872.844 1876.69 864.072L1823.59 749.034C1819.54 740.263 1823.37 729.87 1832.14 725.821L2173.52 568.24C2182.29 564.191 2192.69 568.019 2196.74 576.791Z" fill="#9D4EDD"/>
<mask id="mask6_99_831" style="mask-type:luminance" maskUnits="userSpaceOnUse" x="1821" y="566" width="431" height="309">
<path d="M2196.74 576.791L2249.84 691.829C2253.89 700.6 2250.06 710.993 2241.29 715.042L1899.91 872.623C1891.14 876.672 1880.74 872.844 1876.69 864.072L1823.59 749.034C1819.54 740.263 1823.37 729.87 1832.14 725.821L2173.52 568.24C2182.29 564.191 2192.69 568.019 2196.74 576.791Z" fill="white"/>
</mask>
<g mask="url(#mask6_99_831)">
<path opacity="0.14" d="M2229.6 634.287L1825.85 816.008L1793.07 715.217L1936.36 608.354L2210.8 533.064L2229.6 634.287Z" fill="#C77DFF"/>
</g>
<path d="M2036.65 624.551L2109.64 782.676C2111.74 787.217 2109.76 792.596 2105.22 794.692L1972.73 855.849C1968.19 857.945 1962.81 855.963 1960.71 851.423L1887.72 693.298C1885.63 688.757 1887.61 683.377 1892.15 681.282L2024.64 620.125C2029.18 618.029 2034.56 620.011 2036.65 624.551Z" fill="#C77DFF"/>
<path d="M2093.31 775.923C2094.82 779.187 2093.39 783.054 2090.13 784.561L1974.99 837.71C1971.72 839.217 1967.86 837.792 1966.35 834.528C1964.84 831.264 1966.27 827.397 1969.53 825.89L2084.67 772.741C2087.93 771.234 2091.8 772.659 2093.31 775.923Z" fill="#9D4EDD"/>
<path d="M2080.89 749.011C2082.39 752.275 2080.97 756.143 2077.7 757.649L1962.56 810.798C1959.3 812.305 1955.43 810.88 1953.93 807.616C1952.42 804.352 1953.84 800.484 1957.11 798.978L2072.25 745.829C2075.51 744.323 2079.38 745.747 2080.89 749.011Z" fill="#9D4EDD"/>
<path d="M2068.46 722.099C2069.97 725.363 2068.55 729.23 2065.28 730.737L1950.14 783.886C1946.88 785.393 1943.01 783.968 1941.5 780.704C1939.99 777.44 1941.42 773.573 1944.68 772.066L2059.82 718.917C2063.09 717.411 2066.96 718.835 2068.46 722.099Z" fill="#9D4EDD"/>
<path d="M2056.04 695.186C2057.55 698.45 2056.12 702.317 2052.86 703.824L1937.72 756.973C1934.45 758.48 1930.59 757.055 1929.08 753.791C1927.57 750.527 1929 746.66 1932.26 745.153L2047.4 692.004C2050.67 690.497 2054.53 691.922 2056.04 695.186Z" fill="#9D4EDD"/>
<path d="M2043.62 668.275C2045.13 671.539 2043.7 675.406 2040.44 676.913L1925.3 730.062C1922.03 731.569 1918.16 730.144 1916.66 726.88C1915.15 723.616 1916.58 719.748 1919.84 718.242L2034.98 665.093C2038.24 663.587 2042.11 665.011 2043.62 668.275Z" fill="#9D4EDD"/>
<path d="M2031.2 641.363C2032.7 644.627 2031.28 648.495 2028.01 650.001L1912.87 703.15C1909.61 704.657 1905.74 703.232 1904.23 699.968C1902.73 696.704 1904.15 692.837 1907.42 691.33L2022.56 638.181C2025.82 636.675 2029.69 638.099 2031.2 641.363Z" fill="#9D4EDD"/>
<path d="M1841.2 787.187L1859.08 825.919L1725.88 887.406C1715.19 892.343 1702.51 887.675 1697.58 876.979C1692.64 866.284 1697.31 853.611 1708 848.674L1841.2 787.187Z" fill="#C77DFF"/>
<path d="M2207.36 599.941L2239.18 668.854L2291.68 644.617L2259.87 575.704L2207.36 599.941Z" fill="#C77DFF"/>
<path d="M2253.52 606.073C2398.91 556.279 2554.56 593.717 2729.37 720.528C2755.93 739.803 2787.22 769.491 2823.45 803.868C2916.39 892.06 3032.05 1001.82 3133.36 994.863C3172.12 992.202 3205.41 972.837 3235.14 935.658C3332.28 814.162 3302.02 649.134 3275.32 503.533C3274.04 496.521 3272.76 489.563 3271.51 482.666C3269.2 469.938 3266.77 457.075 3264.32 444.109C3245.24 343.089 3225.5 238.642 3249.67 138.673C3264.3 78.1826 3299.44 33.3776 3351.29 9.10257C3409.49 -18.1464 3483.69 -14.9794 3549.76 17.5746C3620.2 52.2846 3677.31 117.072 3714.9 204.933C3746.34 278.402 3763.5 366.277 3763.21 452.371C3762.75 593.481 3733.74 733.663 3705.7 869.199L3704.29 876C3702.46 884.872 3700.58 893.783 3698.7 902.726C3674.06 1019.85 3648.55 1140.97 3697.6 1253.49C3737.35 1344.68 3815.92 1385.16 3876.15 1384.82L3876.25 1402.62C3835.58 1402.84 3795.03 1388.35 3759.01 1360.7C3725.97 1335.35 3698.37 1299.8 3681.28 1260.6C3629.96 1142.87 3656.05 1018.94 3681.28 899.059C3683.16 890.137 3685.04 881.247 3686.87 872.396L3688.27 865.593C3716.14 730.917 3744.96 591.63 3745.42 452.313C3745.69 368.59 3729.04 283.222 3698.54 211.936C3662.64 128.035 3608.47 66.3456 3541.89 33.5396C3480.62 3.35157 3412.19 0.240566 3358.83 25.2206C3312.05 47.1236 3280.29 87.8016 3266.97 142.858C3243.68 239.105 3263.07 341.637 3281.81 440.806C3284.26 453.816 3286.7 466.72 3289.02 479.492C3290.27 486.377 3291.54 493.324 3292.82 500.324C3320.21 649.667 3351.24 818.943 3249.03 946.773C3216.48 987.487 3177.97 1009.64 3134.58 1012.62C3025.47 1020.11 2906.66 907.368 2811.19 816.779C2775.42 782.837 2744.53 753.522 2718.91 734.936C2549.14 611.776 2398.79 575.132 2259.28 622.912L2253.52 606.073Z" fill="#C77DFF"/>
</g>
<mask id="mask7_99_831" style="mask-type:luminance" maskUnits="userSpaceOnUse" x="0" y="0" width="3000" height="2025">
<path d="M3000 0H0V2025H3000V0Z" fill="white"/>
</mask>
<g mask="url(#mask7_99_831)">
<path d="M1470.22 1120.91C1471.9 1116.99 1474.21 1113.57 1477.13 1110.64C1480.05 1107.72 1483.48 1105.41 1487.4 1103.73C1491.32 1102.05 1495.52 1101.21 1500 1101.21C1504.48 1101.21 1508.68 1102.05 1512.6 1103.73C1516.52 1105.41 1519.94 1107.72 1522.87 1110.64C1525.79 1113.57 1528.1 1116.99 1529.78 1120.91C1531.46 1124.83 1532.3 1129.03 1532.3 1133.51C1532.3 1137.99 1531.46 1142.19 1529.78 1146.11C1528.1 1150.03 1525.79 1153.45 1522.87 1156.37C1519.94 1159.3 1516.52 1161.6 1512.6 1163.28C1508.68 1164.96 1504.48 1165.8 1500 1165.8C1495.52 1165.8 1491.32 1164.96 1487.4 1163.28C1483.48 1161.6 1480.06 1159.3 1477.13 1156.37C1474.21 1153.45 1471.9 1150.03 1470.22 1146.11C1468.54 1142.19 1467.7 1137.99 1467.7 1133.51C1467.7 1129.03 1468.54 1124.83 1470.22 1120.91ZM1547.06 613.456C1547.06 595.071 1543.54 581.279 1536.51 572.081C1529.48 562.888 1517.31 558.289 1500 558.289C1482.69 558.289 1470.52 562.888 1463.49 572.081C1456.46 581.279 1452.95 595.071 1452.95 613.456V779.286L1477.28 1026.25V1025.6C1478.36 1033.82 1481.18 1039.45 1485.72 1042.48C1490.26 1045.51 1495.02 1047.02 1500 1047.02C1504.97 1047.02 1509.68 1045.56 1514.12 1042.64C1518.55 1039.72 1521.31 1034.25 1522.39 1026.25L1547.06 779.286L1547.06 613.456Z" fill="#C77DFF"/>
</g>
</g>
<mask id="mask8_99_831" style="mask-type:luminance" maskUnits="userSpaceOnUse" x="0" y="0" width="3000" height="2025">
<path d="M3000 0H0V2025H3000V0Z" fill="white"/>
</mask>
<g mask="url(#mask8_99_831)">
<g opacity="0.31">
<path d="M-145.382 729.194L-161.907 686.264C-71.115 651.314 15.429 604.505 95.321 547.138C175.213 489.771 247.225 422.726 309.36 347.866C324.01 330.216 338.666 311.524 352.839 293.448C411.012 219.257 471.165 142.54 558.082 99.6081C637.315 60.4701 736.886 51.4261 854.029 72.7271C906.272 82.2261 957.821 96.4981 1007.67 110.301C1048.89 121.713 1091.51 133.513 1133.7 142.336C1214.02 159.135 1297.86 165.987 1382.9 162.707C1464.95 159.54 1548.51 146.939 1631.25 125.252C1791.75 83.188 1948.73 6.79505 2085.23 -95.6689L2112.85 -58.8809C1971.62 47.1291 1809.12 126.188 1642.91 169.749C1556.94 192.282 1470.06 205.377 1384.67 208.672C1295.88 212.102 1208.27 204.928 1124.28 187.361C1080.65 178.237 1037.31 166.237 995.397 154.632C946.528 141.102 895.997 127.111 845.797 117.984C738.582 98.4901 648.635 106.183 578.451 140.85C500.909 179.152 444.036 251.685 389.035 321.83C374.667 340.154 359.811 359.101 344.752 377.244C280.116 455.118 205.221 524.851 122.147 584.502C39.077 644.156 -50.934 692.836 -145.382 729.194Z" fill="#7B2CBF"/>
</g>
</g>
<mask id="mask9_99_831" style="mask-type:luminance" maskUnits="userSpaceOnUse" x="0" y="0" width="3000" height="2025">
<path d="M3000 0H0V2025H3000V0Z" fill="white"/>
</mask>
<g mask="url(#mask9_99_831)">
<path d="M-145.382 709.226L-161.907 666.296C-71.115 631.346 15.429 584.537 95.321 527.17C175.213 469.803 247.225 402.758 309.36 327.898C324.01 310.248 338.666 291.556 352.839 273.48C411.012 199.289 471.165 122.572 558.082 79.6403C637.315 40.5023 736.886 31.4583 854.029 52.7593C906.272 62.2583 957.821 76.5303 1007.67 90.3333C1048.89 101.745 1091.51 113.545 1133.7 122.368C1214.02 139.167 1297.86 146.019 1382.9 142.739C1464.95 139.572 1548.51 126.97 1631.25 105.284C1791.75 63.2203 1948.73 -13.1727 2085.23 -115.637L2112.85 -78.8487C1971.62 27.1613 1809.12 106.22 1642.91 149.781C1556.94 172.314 1470.06 185.409 1384.67 188.704C1295.88 192.134 1208.27 184.96 1124.28 167.393C1080.65 158.269 1037.31 146.269 995.397 134.664C946.528 121.134 895.997 107.143 845.797 98.0163C738.582 78.5223 648.635 86.2153 578.451 120.882C500.909 159.184 444.036 231.717 389.035 301.862C374.667 320.186 359.811 339.133 344.752 357.276C280.116 435.15 205.221 504.882 122.147 564.534C39.077 624.188 -50.934 672.868 -145.382 709.226Z" fill="#C77DFF"/>
</g>
<mask id="mask10_99_831" style="mask-type:luminance" maskUnits="userSpaceOnUse" x="0" y="0" width="3000" height="2025">
<path d="M3000 0H0V2025H3000V0Z" fill="white"/>
</mask>
<g mask="url(#mask10_99_831)">
<g opacity="0.31">
<path d="M2048.97 2199.94L2050.61 2120.78L2063.22 2121.04C2102.68 2053.39 2165.33 2008.25 2253.97 1983.4C2338.64 1959.67 2432.92 1957.55 2524.11 1955.5C2569.16 1954.48 2611.72 1953.52 2650.53 1949.92C2711.86 1944.22 2755.84 1933.16 2793.13 1914.06C2819.41 1900.6 2840.65 1882.99 2856.25 1861.72C2870.77 1841.91 2880.12 1819.39 2884.04 1794.77C2893.5 1735.39 2870.4 1670.96 2822.23 1622.42C2796.24 1596.23 2765.19 1573.02 2732.32 1548.45C2670.08 1501.92 2605.71 1453.81 2575.34 1382.42C2555.7 1336.28 2555.66 1283.81 2575.22 1238.47C2593.23 1196.74 2626.21 1165.24 2668.09 1149.76C2731.57 1126.32 2807.15 1119.81 2892.74 1130.43C2964.12 1139.29 3041.35 1160.7 3110.19 1190.7L3101.41 1210.87C2982.69 1159.13 2808.53 1121.34 2675.72 1170.4C2639.54 1183.77 2611.02 1211.04 2595.42 1247.18C2578.24 1287.02 2578.29 1333.18 2595.58 1373.81C2623.64 1439.74 2685.58 1486.05 2745.49 1530.83C2777.56 1554.79 2810.72 1579.58 2837.85 1606.92C2890.94 1660.43 2916.33 1731.95 2905.77 1798.24C2896.5 1856.41 2860.06 1904.5 2803.16 1933.64C2763.26 1954.08 2716.81 1965.86 2652.57 1971.83C2612.99 1975.5 2570.06 1976.47 2524.6 1977.49C2434.78 1979.51 2341.9 1981.6 2259.91 2004.59C2216.04 2016.89 2180.01 2033.83 2149.75 2056.4C2115.65 2081.83 2089.89 2113.59 2070.97 2153.5L2048.97 2199.94Z" fill="#7B2CBF"/>
</g>
</g>
<mask id="mask11_99_831" style="mask-type:luminance" maskUnits="userSpaceOnUse" x="0" y="0" width="3000" height="2025">
<path d="M3000 0H0V2025H3000V0Z" fill="white"/>
</mask>
<g mask="url(#mask11_99_831)">
<path d="M2033.09 2199.94L2034.73 2120.78L2047.34 2121.04C2086.8 2053.39 2149.45 2008.25 2238.09 1983.4C2322.76 1959.67 2417.05 1957.55 2508.23 1955.5C2553.29 1954.48 2595.84 1953.52 2634.66 1949.92C2695.98 1944.22 2739.96 1933.16 2777.25 1914.06C2803.53 1900.6 2824.77 1882.99 2840.37 1861.72C2854.89 1841.91 2864.24 1819.39 2868.17 1794.77C2877.63 1735.39 2854.52 1670.96 2806.35 1622.42C2780.36 1596.23 2749.31 1573.02 2716.44 1548.45C2654.2 1501.92 2589.83 1453.81 2559.46 1382.42C2539.82 1336.28 2539.78 1283.81 2559.34 1238.47C2577.35 1196.74 2610.33 1165.24 2652.21 1149.76C2715.69 1126.32 2791.27 1119.81 2876.85 1130.43C2948.24 1139.29 3025.47 1160.7 3094.31 1190.7L3085.52 1210.87C2966.81 1159.13 2792.65 1121.34 2659.84 1170.4C2623.65 1183.77 2595.14 1211.04 2579.54 1247.18C2562.35 1287.02 2562.41 1333.18 2579.7 1373.81C2607.75 1439.74 2669.7 1486.05 2729.61 1530.83C2761.68 1554.79 2794.84 1579.58 2821.97 1606.92C2875.06 1660.43 2900.45 1731.95 2889.89 1798.24C2880.62 1856.41 2844.18 1904.5 2787.28 1933.64C2747.38 1954.08 2700.93 1965.86 2636.69 1971.83C2597.11 1975.5 2554.18 1976.47 2508.72 1977.49C2418.9 1979.51 2326.02 1981.6 2244.03 2004.59C2200.16 2016.89 2164.12 2033.83 2133.87 2056.4C2099.77 2081.83 2074.01 2113.59 2055.09 2153.5L2033.09 2199.94Z" fill="#C77DFF"/>
</g>
</svg>
