<svg width="402" height="345" viewBox="0 0 402 345" fill="none" xmlns="http://www.w3.org/2000/svg">
<g opacity="0.2">
<path fill-rule="evenodd" clip-rule="evenodd" d="M0 0L401.453 7L376.5 344.961L31.5 330L0 0Z" fill="#E0AAFF"/>
</g>
<path d="M246.1 43.3321C238.53 45.4461 232.006 51.2221 232.884 59.5711C233.114 61.7641 233.954 63.8021 234.922 65.8331C235.419 66.8791 236.05 67.8851 236.604 68.9021C240.087 66.9021 241.399 66.6951 243.459 65.4591C242.566 62.1421 240.923 58.6861 243.284 55.5611C245.336 52.9371 249.964 52.1631 252.612 54.3161C255.669 56.8011 255.019 61.9551 252.629 64.6561C252.4 64.9141 250.074 66.8571 250.093 66.8871C250.093 66.8871 253.422 74.0111 254.098 76.4171C256.379 75.6641 258.96 73.6821 260.07 73.1871C259.89 71.5191 258.021 67.6851 258.021 67.6851C258.021 67.6851 259.882 66.0681 260.269 65.4431C261.067 64.2921 261.613 62.9861 262.16 61.6811C262.851 59.7881 262.518 56.6391 262.254 54.6801C261.196 46.8491 254.025 41.1191 246.1 43.3321Z" fill="#5A189A"/>
<path d="M261.214 81.4241C259.093 81.7261 256.783 83.1131 256.359 85.3641C256.156 86.4381 256.279 87.4511 256.63 88.3291C257.761 91.1411 261.26 92.5851 264.12 90.2961C265.838 88.9211 267.148 86.2641 266.116 84.1761C265.195 82.3121 263.335 81.1211 261.214 81.4241Z" fill="#5A189A"/>
<path d="M289.62 29.513C281.766 29.191 273.78 32.675 272.041 40.888C271.585 43.045 271.757 45.243 272.051 47.473C272.202 48.62 272.492 49.772 272.704 50.911C276.636 50.082 277.948 50.289 280.288 49.749C280.463 46.318 279.963 42.523 283.172 40.279C285.934 38.415 290.574 39.106 292.431 41.97C294.573 45.276 292.367 49.98 289.259 51.811C288.961 51.986 286.151 53.117 286.159 53.152C286.159 53.152 287.131 60.956 287.031 63.453C289.433 63.439 292.5 62.349 293.708 62.22C294.051 60.578 293.454 56.354 293.454 56.354C293.454 56.354 295.724 55.39 296.285 54.915C297.397 54.066 298.319 52.992 299.242 51.919C300.483 50.332 301.138 47.232 301.489 45.287C302.897 37.512 297.843 29.85 289.62 29.513Z" fill="#5A189A"/>
<path d="M292.258 70.409C290.146 70.042 287.522 70.65 286.424 72.661C285.901 73.62 285.703 74.621 285.769 75.565C285.976 78.587 288.862 81.041 292.287 79.745C294.345 78.966 296.411 76.843 296.073 74.538C295.77 72.481 294.367 70.775 292.258 70.409Z" fill="#5A189A"/>
<path d="M330.668 26.8571C322.957 25.3301 314.53 27.5441 311.549 35.3911C310.765 37.4521 310.597 39.6501 310.544 41.8991C310.517 43.0561 310.626 44.2391 310.661 45.3971C314.673 45.1831 315.936 45.5901 318.333 45.4161C319.032 42.0531 319.123 38.2271 322.639 36.5021C325.656 35.0861 330.135 36.4821 331.528 39.5981C333.136 43.1941 330.233 47.5021 326.881 48.8341C326.559 48.9611 323.608 49.6461 323.61 49.6821C323.61 49.6821 323.37 57.5421 322.885 59.9951C325.262 60.3511 328.46 59.7461 329.673 59.8051C330.265 58.2351 330.326 53.9701 330.326 53.9701C330.326 53.9701 332.717 53.3661 333.344 52.9831C334.574 52.3151 335.651 51.3961 336.727 50.4771C338.198 49.1001 339.321 46.1391 339.968 44.2701C342.556 36.8051 338.741 28.4561 330.668 26.8571Z" fill="#5A189A"/>
<path d="M326.98 67.6721C324.949 66.9841 322.262 67.1811 320.869 68.9991C320.204 69.8661 319.855 70.8251 319.774 71.7691C319.513 74.7871 321.987 77.6541 325.57 76.9021C327.724 76.4491 330.091 74.6691 330.113 72.3391C330.131 70.2601 329.008 68.3581 326.98 67.6721Z" fill="#5A189A"/>
<path d="M102.71 249.895C98.8982 253.935 93.6632 256.6 85.7282 262.576L85.3892 262.473C93.4442 265.271 97.5012 267.189 97.5012 267.189C102.027 264.473 111.747 257.435 115.117 253.631L102.71 249.895Z" fill="#F3D5C5"/>
<path d="M194.431 181.804C180.561 191.612 108.371 239.891 93.439 250.943C99.862 260.444 106.962 263.78 107.871 263.609C114.065 262.44 151.396 240.213 161.572 234.553C170.488 230.141 179.051 225.678 187.913 221.616C195.266 218.047 204.023 214.689 210.92 211.77L194.431 181.804Z" fill="#5A189A"/>
<path d="M104.735 259.297C104.735 259.297 106.406 258.338 109.331 256.659C112.264 254.996 116.455 252.62 121.482 249.768C126.525 246.944 132.409 243.649 138.712 240.12C145.033 236.62 151.775 232.887 158.517 229.154C165.281 225.46 172.044 221.767 178.385 218.304C184.743 214.872 190.677 211.669 195.763 208.923C200.865 206.205 205.116 203.94 208.091 202.354C211.075 200.784 212.78 199.887 212.78 199.887C212.78 199.887 211.109 200.847 208.184 202.525C205.251 204.188 201.061 206.565 196.033 209.416C190.99 212.24 185.106 215.535 178.802 219.065C172.481 222.564 165.739 226.297 158.997 230.03C152.233 233.723 145.469 237.417 139.128 240.88C132.77 244.312 126.837 247.515 121.75 250.261C116.649 252.979 112.398 255.244 109.422 256.83C106.44 258.399 104.735 259.297 104.735 259.297Z" fill="#1F3641"/>
<path d="M97.3491 250.816C100.56 256.29 106.259 259.231 111.756 261.963C112.03 262.099 112.901 262.016 112.32 261.727C106.983 259.076 101.434 256.226 98.3151 250.909C98.1611 250.645 97.2301 250.612 97.3491 250.816Z" fill="#1F3641"/>
<path d="M48.002 244.879C45.326 249.12 49.401 256.39 59.432 266.846C62.546 270.092 77.326 282.083 82.373 282.919C82.951 282.998 83.82 282.749 84.873 282.27C77.545 278.09 69.213 271.76 63.641 265.979C58.708 261.159 49.599 252.619 48.002 244.879Z" fill="#CDCDCD"/>
<path d="M62.351 249.993C59.754 247.643 52.804 241.483 50.821 242.483C49.535 243.13 48.601 243.929 48.002 244.879C48.856 249.02 51.863 253.384 55.226 257.289C58.016 255.322 60.729 252.495 62.351 249.993Z" fill="#EFF9FF"/>
<path d="M100.782 270.217C101.391 269.7 101.998 269.19 102.602 268.698C96.5211 264.384 94.3051 263.264 88.4591 256.637C87.8781 257.396 87.3061 258.022 86.7451 258.57C89.8471 263.277 95.4481 267.388 100.782 270.217Z" fill="#EFF9FF"/>
<path d="M78.738 278.426C80.807 279.83 82.877 281.13 84.873 282.27C86.819 281.274 88.694 280.039 90.525 278.696C87.1 277.349 82.255 277.477 78.738 278.426Z" fill="#EFF9FF"/>
<path d="M86.7451 258.57C82.1561 263.047 78.4011 261.075 78.4011 261.075C78.4011 261.075 66.2511 253.435 63.2301 250.785C63.0741 250.649 62.7621 250.363 62.3511 249.993C60.7291 252.495 58.0161 255.322 55.2261 257.289C58.1521 260.685 61.3461 263.736 63.6411 265.978C67.6951 270.185 73.2111 274.678 78.7381 278.425C82.2551 277.477 87.1001 277.349 90.5251 278.694C94.1011 276.074 97.4881 273.009 100.782 270.216C95.4481 267.388 89.8471 263.277 86.7451 258.57Z" fill="#240046"/>
<path d="M64.9189 259.138C66.0339 257.704 67.2689 256.439 68.3589 255.149" stroke="#EFF9FF" stroke-miterlimit="10" stroke-linecap="round" stroke-linejoin="round"/>
<path d="M69.5488 262.243C70.3798 261.644 71.5188 260.069 72.3008 258.876" stroke="#EFF9FF" stroke-miterlimit="10" stroke-linecap="round" stroke-linejoin="round"/>
<path d="M74.751 265.442C75.32 264.654 76.481 262.935 77.24 261.884" stroke="#EFF9FF" stroke-miterlimit="10" stroke-linecap="round" stroke-linejoin="round"/>
<path d="M82.9102 262.224C82.9402 263.843 83.3972 265.533 83.7372 267.057" stroke="#EFF9FF" stroke-miterlimit="10" stroke-linecap="round" stroke-linejoin="round"/>
<path d="M263.11 162.216C252.357 160.635 255.938 191.682 269.602 186.79C276.152 184.5 273.597 178.539 271.402 174.297C269.807 170.607 267.782 163.47 263.673 161.904L263.11 162.216Z" fill="#C69F3A"/>
<path d="M281.59 162.11C262.841 159.194 263.431 141.84 263.104 133.839C262.372 137.118 258.392 145.73 255.955 139.114C253.518 132.498 258.275 121.689 262.405 116.755C254.563 117.509 255.272 111.848 259.491 109.076C264.757 105.394 274.643 103.473 280.697 103.225C285.562 97.2061 284.801 97.6421 288.615 95.5371C296.241 91.3261 303.541 89.7271 312.173 88.9401C314.336 88.8521 321.454 88.1271 321.372 91.3801C321.261 93.9841 314.051 97.7451 312.165 99.3381C317.067 97.4051 323.088 98.6481 327.814 100.647C332.979 102.831 347.628 108.191 344.923 116.411C343.931 118.618 338.921 117.957 336.749 117.828C344.196 125.105 338.609 136.814 331.668 141.864C326.412 145.762 320.3 149.911 314.126 152.546C307.32 155.641 300.126 159.835 292.574 160.577L281.59 162.11Z" fill="#372314"/>
<path d="M256.695 169.627C261.838 166.449 275.556 161.104 276.143 160.58C276.496 160.266 276.645 159.803 276.45 158.999C276.45 158.999 274.422 156.338 272.63 154.895C269.731 152.848 267.457 144.926 270.17 142.432C273.912 138.597 278.07 144.925 279.268 147.692C280.569 142.44 278.401 137.113 278.396 131.697C289.399 130.597 291.923 118.146 293.298 109.425C299.676 111.763 303.23 119.199 310.79 118.674C316.403 118.227 316.814 112.362 311.733 109.97C318.526 111.859 328.669 116.209 329.662 124.616C330.62 132.158 329.651 140.213 330.392 147.764C331.206 157.045 332.943 164.99 326.118 172.851C319.091 181.154 306.436 180.588 297.843 177.041C293.888 175.686 286.539 171.415 283.137 168.111C283.137 168.111 268.683 180.183 260.942 181.583L256.695 169.627Z" fill="#F3D5C5"/>
<path d="M271.385 145.631C271.385 145.631 271.593 145.598 271.954 145.565C272.132 145.537 272.356 145.558 272.625 145.597C272.903 145.618 273.193 145.695 273.5 145.806C273.825 145.891 274.128 146.069 274.465 146.244C274.776 146.445 275.124 146.653 275.424 146.924C275.736 147.186 276.037 147.476 276.31 147.797C276.602 148.105 276.836 148.459 277.089 148.8C278.037 150.208 278.622 151.786 278.883 153C279.162 154.213 279.135 155.061 279.135 155.061C279.135 155.061 279.014 154.886 278.828 154.578C278.64 154.27 278.379 153.834 278.08 153.313C277.78 152.801 277.43 152.204 277.055 151.564C276.681 150.933 276.272 150.277 275.848 149.64C275.626 149.332 275.419 149.007 275.187 148.72C274.965 148.42 274.735 148.141 274.502 147.878C274.273 147.61 274.033 147.376 273.807 147.146C273.558 146.955 273.347 146.715 273.11 146.57C272.879 146.405 272.669 146.245 272.467 146.146C272.268 146.036 272.088 145.912 271.911 145.859C271.575 145.722 271.385 145.631 271.385 145.631Z" fill="#CE9282"/>
<path d="M319.082 151.911C319.28 152.296 319.478 152.681 319.659 153.071C319.817 153.475 319.959 153.892 320.104 154.312C320.345 155.151 320.542 156.006 320.67 156.869C320.795 157.73 320.893 158.592 320.947 159.452C321.014 160.309 321.058 161.162 321.095 162.01L321.097 162.05C321.108 162.314 320.964 162.548 320.746 162.666C320.256 162.93 319.774 163.221 319.271 163.46C318.754 163.658 318.242 163.869 317.722 164.052C317.195 164.204 316.664 164.35 316.131 164.473C315.592 164.563 315.056 164.662 314.519 164.741L312.895 164.853C312.354 164.854 311.812 164.83 311.275 164.818C310.737 164.774 310.202 164.697 309.671 164.634C309.142 164.533 308.619 164.407 308.104 164.276C308.641 164.231 309.169 164.21 309.693 164.18L311.256 164.028L312.798 163.808L314.316 163.514L315.805 163.143C316.29 162.987 316.769 162.819 317.255 162.677C317.726 162.497 318.185 162.293 318.651 162.104L319.975 161.416L319.626 162.071C319.567 160.346 319.615 158.65 319.58 156.966C319.56 156.547 319.546 156.127 319.537 155.704L319.448 154.444L319.301 153.19C319.22 152.765 319.149 152.339 319.082 151.911Z" fill="#CE9282"/>
<path d="M309.716 145.362C309.716 145.362 310.122 145.661 310.845 146.141C311.568 146.623 312.613 147.291 313.897 148.012C314.538 148.375 315.251 148.729 316.003 149.089C316.76 149.438 317.573 149.765 318.422 150.028C319.266 150.311 320.165 150.462 321.037 150.491C321.477 150.518 321.9 150.452 322.31 150.369L322.849 150.2C323.047 150.087 323.337 149.966 323.461 149.858C324.137 149.439 324.486 148.866 324.361 148.132C324.232 147.383 323.794 146.567 323.295 145.843C322.277 144.38 321.085 143.105 320.113 141.977C319.124 140.859 318.316 139.888 317.832 139.144C317.579 138.781 317.43 138.459 317.33 138.246C317.25 138.024 317.207 137.906 317.207 137.906C317.207 137.906 317.444 138.352 318.064 138.956C318.664 139.575 319.609 140.374 320.723 141.369C321.283 141.865 321.89 142.407 322.505 143.018C323.122 143.628 323.772 144.284 324.362 145.064C324.935 145.848 325.566 146.705 325.791 147.899C325.895 148.49 325.836 149.196 325.521 149.789C325.202 150.381 324.761 150.824 324.223 151.146C323.945 151.334 323.762 151.39 323.528 151.518C323.158 151.664 322.948 151.706 322.65 151.799C322.093 151.909 321.529 151.974 320.992 151.935C319.91 151.891 318.903 151.619 317.995 151.273C317.073 150.947 316.248 150.51 315.486 150.077C314.726 149.641 314.04 149.184 313.431 148.731C312.205 147.838 311.279 146.985 310.654 146.367C310.339 146.059 310.109 145.803 309.954 145.627C309.8 145.455 309.716 145.362 309.716 145.362Z" fill="#CE9282"/>
<path d="M295.034 125.384C295.568 122.546 298.922 119.81 302.391 119.884L295.034 125.384Z" fill="#372314"/>
<path d="M318.871 120.292C321.638 119.096 325.013 122.207 325.562 125L318.871 120.292Z" fill="#372314"/>
<path d="M299.966 134.449C299.925 134.441 299.884 134.435 299.842 134.431C297.86 134.198 295.521 136.296 296.431 138.324C297.273 140.202 299.691 140.067 301.056 138.858C302.334 137.726 301.77 134.77 299.966 134.449Z" fill="#272525"/>
<path d="M322.673 134.59C321.138 135.469 320.393 137.891 322.021 139.01C324.104 140.444 326.465 138.097 325.718 135.874C325.328 134.713 323.832 133.956 322.72 134.564C322.703 134.573 322.688 134.581 322.673 134.59Z" fill="#272525"/>
<path d="M231.961 142.118C242.123 143.434 257.43 143.386 261.939 154.754C262.897 157.026 265.353 162.774 265.353 162.774C264.88 165.392 261.281 166.912 261.386 169.507C261.586 174.409 267.902 180.505 272.697 177.709C274.857 181.086 280.176 184.046 280.654 188.648C281.43 193.526 275.541 197.811 271.899 200.56C265.444 205.157 259.001 210.041 251.945 214.086C248.28 216.256 244.662 219.582 240.672 220.9L231.961 142.118Z" fill="#9D4EDD"/>
<path d="M189.74 196.629C206.247 181.667 222.603 166.243 239.675 151.663C236.561 139.639 233.7 128.662 231.361 119.888C221.191 127.401 211.475 135.632 201.922 143.88C197.443 147.739 192.814 151.6 188.332 155.61C182.836 174.972 176.694 196.564 171.398 215.46C177.446 209.179 183.321 202.633 189.74 196.629Z" fill="#F8F8FA"/>
<path d="M231.36 119.887C229.31 112.203 227.658 106.204 226.586 102.681C219.096 102.056 203.487 101.117 203.487 101.117C202.311 106.282 195.939 128.808 188.33 155.61C192.812 151.599 197.442 147.739 201.92 143.88C211.475 135.631 221.19 127.401 231.36 119.887Z" fill="#7B2CBF"/>
<path d="M258.389 223.708C241.733 237.233 221.415 253.85 205.775 266.437L270.886 268.43C268.394 260.989 263.77 244.085 258.389 223.708Z" fill="#7B2CBF"/>
<path d="M249.392 189.242C217.331 211.404 187.515 238.018 159.61 265.023L205.774 266.437C221.415 253.849 241.732 237.233 258.388 223.708C255.534 212.899 252.469 201.114 249.392 189.242Z" fill="#F8F8FA"/>
<path d="M239.675 151.663C222.604 166.243 206.247 181.666 189.74 196.629C183.321 202.633 177.446 209.179 171.396 215.461C164.333 240.66 158.774 261.065 158.255 264.982L159.61 265.024C187.515 238.019 217.33 211.405 249.392 189.243C246.076 176.441 242.752 163.544 239.675 151.663Z" fill="#7B2CBF"/>
<path d="M130.124 286.527C130.124 286.527 127.27 262.433 128.697 261.526C130.124 260.619 294.486 255.626 294.486 255.626V284.966L131.06 286.527" fill="#240046"/>
<path d="M259.203 209.173C259.925 209.029 260.647 209.895 261.223 210.761C262.954 213.791 261.223 215.378 258.482 216.099C257.184 216.532 252.855 217.83 251.844 216.532C250.112 214.079 256.606 211.049 257.904 210.328L259.203 209.173Z" fill="#F3D5C5"/>
<path d="M259.304 209.384C260.781 209.476 261.51 212.238 261.377 213.375C261.202 214.876 259.374 215.551 258.156 215.902C256.8 216.294 251.569 218.085 252.107 215.305C252.458 213.491 255.238 212.171 256.655 211.38C257.815 210.733 258.674 210.188 259.671 209.301C259.858 209.135 258.962 208.841 258.735 209.042C256.837 210.731 254.451 211.621 252.502 213.264C250.729 214.758 250.554 216.965 253.185 217.276C255.437 217.543 259.192 216.709 261.044 215.351C263.501 213.55 262.118 209.147 259.103 208.959C258.421 208.919 258.878 209.358 259.304 209.384Z" fill="#CE9282"/>
<path d="M259.492 203.546C265.985 208.019 256.462 213.069 252.566 213.358C249.392 213.502 245.351 212.347 248.237 208.596C250.112 205.998 254.73 205.566 257.472 204.267L259.492 203.546Z" fill="#F3D5C5"/>
<path d="M259.114 203.592C265.566 208.375 254.867 213.564 250.44 213.044C247.136 212.656 247.402 210.351 249.026 208.358C250.094 207.048 251.958 206.473 253.502 205.961C255.644 205.249 257.759 204.514 259.884 203.755C260.229 203.632 259.351 203.249 259.101 203.338C255.767 204.528 251.871 205.3 248.93 207.289C247.625 208.171 246.295 210.085 246.999 211.677C247.463 212.726 249.096 213.225 250.102 213.399C253.43 213.975 256.478 212.919 259.254 211.079C262.464 208.952 263.099 205.894 259.87 203.501C259.668 203.35 258.696 203.281 259.114 203.592Z" fill="#CE9282"/>
<path d="M256.606 198.062C257.76 198.495 259.203 200.66 259.347 202.246C259.781 206.72 254.585 206.864 251.411 207.441C249.102 207.73 244.485 208.307 246.071 205.132C247.659 201.813 252.854 199.793 255.884 198.35L256.606 198.062Z" fill="#F3D5C5"/>
<path d="M256.243 198.177C259.108 199.722 259.918 204.063 256.982 205.855C254.938 207.102 251.744 207.248 249.391 207.438C243.534 207.914 247.757 203.228 249.988 201.71C252.097 200.274 254.584 199.175 256.948 198.23C257.439 198.034 256.503 197.8 256.264 197.895C252.856 199.258 249.156 200.867 246.594 203.566C244.223 206.064 245.55 207.934 248.597 207.88C251.592 207.827 255.119 207.463 257.828 206.121C261.29 204.406 259.809 199.48 256.969 197.948C256.745 197.827 255.781 197.927 256.243 198.177Z" fill="#CE9282"/>
<path d="M256.938 194.712C254.877 192.961 250.786 194.119 248.927 195.644C247.788 196.578 246.286 198.952 246.588 200.545C247.333 204.494 258.832 201.339 257.628 195.854C257.525 195.383 257.283 195.005 256.938 194.712Z" fill="#F3D5C5"/>
<path d="M257.379 194.66C254.759 192.771 250.928 193.676 248.51 195.494C246.748 196.819 244.518 201.089 247.651 202.165C251.344 203.435 261.606 199.552 257.379 194.66C257.206 194.46 256.242 194.467 256.498 194.763C259.723 198.495 253.087 201.707 250.309 202.064C247.303 202.45 246.502 200.443 247.692 197.954C249.032 195.149 253.583 192.662 256.499 194.763C256.712 194.917 257.66 194.863 257.379 194.66Z" fill="#CE9282"/>
<path d="M234.674 134.284C233.231 134.284 229.623 135.15 228.614 133.851C226.737 131.543 230.634 128.946 232.22 128.224C237.703 125.626 242.321 127.358 242.032 133.851L234.674 134.284Z" fill="#F3D5C5"/>
<path d="M234.473 134.054C233.204 134.105 231.953 134.311 230.683 134.337C227.297 134.404 228.87 131.251 230.179 130.023C232.629 127.725 237.714 125.919 240.293 128.793C240.701 129.248 242.183 133.6 241.685 133.629C241.014 133.669 240.344 133.708 239.674 133.747C237.905 133.851 236.136 133.956 234.366 134.06C233.857 134.09 234.735 134.524 234.981 134.509C237.433 134.365 239.886 134.22 242.339 134.076C242.382 134.074 242.515 134.043 242.516 133.975C242.623 127.329 237.296 125.579 231.827 128.019C230.261 128.718 226.45 131.183 227.87 133.377C229.338 135.646 232.662 134.604 234.875 134.514C235.523 134.488 234.781 134.042 234.473 134.054Z" fill="#CE9282"/>
<path d="M244.213 134.135C244.072 133.796 243.863 133.483 243.575 133.209C241.773 131.499 237.971 132.258 235.887 132.955C233.044 133.906 228.716 135.474 226.737 137.891C225.438 139.479 223.852 142.076 225.15 144.096C226.592 146.405 228.902 144.817 230.633 143.808C234.096 142.076 237.991 141.643 241.455 140.056C243.334 139.251 245.073 136.215 244.213 134.135Z" fill="#F3D5C5"/>
<path d="M244.654 134.178C242.813 130.775 237.837 131.935 234.924 132.92C231.084 134.218 224.069 136.925 224.202 142.061C224.243 143.656 225.072 145.107 226.708 145.469C228.748 145.92 230.902 144.043 232.636 143.327C236.558 141.708 246.648 140.948 244.687 134.24C244.603 133.954 243.664 133.773 243.74 134.031C245.051 138.514 240.279 140.293 236.941 141.281C234.957 141.869 232.981 142.405 231.064 143.196C229.308 143.922 226.023 146.576 225.167 142.932C224.735 141.097 226.504 138.843 227.604 137.624C228.845 136.249 230.735 135.383 232.386 134.642C235.084 133.432 241.826 130.492 243.773 134.092C243.897 134.324 244.841 134.523 244.654 134.178Z" fill="#CE9282"/>
<path d="M243.332 145.251C244.197 143.375 245.207 139.912 243.042 138.614C240.157 136.738 235.684 139.912 233.375 141.355C231.355 142.509 223.996 147.272 228.758 148.714C231.355 149.436 235.973 147.849 238.425 147.272L243.332 145.251Z" fill="#F3D5C5"/>
<path d="M243.809 145.337C244.628 143.461 245.344 141.256 244.312 139.333C243.574 137.957 241.297 137.644 239.94 137.906C235.809 138.704 231.277 141.809 228.215 144.671C227.309 145.517 226.076 146.958 227.11 148.138C228.049 149.21 230.174 149.183 231.426 149.05C235.769 148.59 239.684 147.058 243.674 145.415C244.163 145.214 243.226 144.986 242.988 145.084C241.352 145.757 239.716 146.431 238.081 147.104C236.332 147.824 234.181 148.153 232.335 148.492C229.752 148.967 226.342 148.276 228.535 145.516C230.125 143.514 232.576 142.263 234.696 140.913C236.77 139.593 241.036 136.646 243.342 139.37C244.589 140.843 243.502 143.678 242.854 145.162C242.725 145.461 243.702 145.583 243.809 145.337Z" fill="#CE9282"/>
<path d="M243.819 146.149C243.812 146.128 243.803 146.107 243.796 146.086C242.425 142.439 236.978 144.304 234.636 145.709C233.517 146.381 231.364 147.823 230.922 149.147C229.898 152.218 235.574 152.174 237.191 152.055C240.135 151.839 245.29 150.217 243.819 146.149Z" fill="#F3D5C5"/>
<path d="M244.301 146.09C241.942 139.699 227.942 147.411 230.761 150.972C232.197 152.786 236.27 152.406 238.267 152.138C241.402 151.717 245.423 149.941 244.32 146.143C244.229 145.829 243.257 145.938 243.32 146.154C244.93 151.695 236.213 152.686 232.573 151.386C229.001 150.111 233.651 146.682 235.069 145.804C237.356 144.389 242.093 142.836 243.339 146.207C243.431 146.459 244.413 146.394 244.301 146.09Z" fill="#CE9282"/>
</svg>
